<?xml version="1.0" encoding="utf-8"?>
<!-- Generator: Adobe Illustrator 27.8.0, SVG Export Plug-In . SVG Version: 6.00 Build 0)  -->
<svg version="1.1" id="Ebene_1" xmlns="http://www.w3.org/2000/svg" xmlns:xlink="http://www.w3.org/1999/xlink" x="0px" y="0px"
	 viewBox="0 0 48 48" style="enable-background:new 0 0 48 48;" xml:space="preserve">
<style type="text/css">
	.st0{fill:#F7F7F7;}
</style>
<g>
	<path d="M19.6,46.4c-3.4,0-6.7-0.4-9.8-1.8c-1.7-0.8-3.2-1.8-4.7-3c-1.5-1.2-2.1-2.9-2.4-4.9C2,30.2,1.3,23.8,0.4,17.4
		c-0.4-3,0.4-5.4,2.2-7.7c1.8-2.1,4-3.5,6.6-4.5c8.3-3,16.5-3.1,24.4,0.9c0.8,0.4,1.5,0.4,2.3,0.3c1.5-0.1,3-0.2,4.4,0
		c4.1,0.7,6.9,3.9,7.2,8c0.3,3.4-0.7,6.5-2.5,9.3c-1.7,2.6-3.9,4.7-6.6,6.2c-1.1,0.5-1.6,1.2-1.6,2.4c-0.1,1.2-0.4,2.4-0.5,3.5
		c-0.2,3.6-2.2,5.9-5.1,7.7C27.7,45.7,23.7,46.3,19.6,46.4z M5.1,23.4c0.4,4.1,0.8,8,1.1,11.8c0.2,2.7,1.7,4.4,4,5.4
		c6.1,2.7,12.2,2.7,18.4,0.2c2.4-1,3.9-2.8,4.3-5.5c0.5-3.5,0.9-7.1,1.4-10.6c0.1-0.6,0.1-1.1,0.2-1.9C24.7,27.8,15.1,28.2,5.1,23.4
		z M34.8,16.5c1-1.8,1.2-3,0-4.4c-1-1.2-2.3-2.4-3.7-3.1C23.4,5.7,15.7,6,8.3,9.9c-1.3,0.7-2.5,1.9-3.4,3.1c-1.1,1.4-1.1,3-0.1,4.5
		C14.7,12,24.7,11.6,34.8,16.5z M31.8,19.6c-5.7-4.2-20-3-23.6,0.7C12.8,24,25.8,24,31.8,19.6z M38,10.2c0.7,0.8,1,1.5,1.6,1.9
		c3.1,2.2,3.3,6.9-0.1,9.6c-1.3,1.1-1.5,2.3-1.4,3.9c2.1-1.4,3.5-2.9,4.7-5.1c0.9-1.8,1.4-3.6,1.2-5.6C43.6,11.8,41.6,10,38,10.2z"
		/>
	<path class="st0" d="M5.1,23.4c10,4.8,19.6,4.4,29.3-0.6c-0.1,0.8-0.1,1.3-0.2,1.9c-0.5,3.5-1,7.1-1.4,10.6
		c-0.3,2.7-1.8,4.5-4.3,5.5c-6.1,2.5-12.3,2.5-18.4-0.2c-2.3-1-3.8-2.7-4-5.4C5.9,31.3,5.5,27.5,5.1,23.4z"/>
	<path class="st0" d="M34.8,16.5c-10.1-4.9-20.1-4.5-30,0.9c-1-1.5-1-3.1,0.1-4.5c0.9-1.2,2.1-2.4,3.4-3.1C15.7,6,23.4,5.7,31.1,9.1
		c1.4,0.6,2.7,1.9,3.7,3.1C36,13.6,35.8,14.7,34.8,16.5z"/>
	<path class="st0" d="M31.8,19.6c-6,4.4-19,4.4-23.6,0.7C11.8,16.6,26.1,15.4,31.8,19.6z"/>
	<path class="st0" d="M38,10.2c3.6-0.2,5.6,1.6,6,4.7c0.2,2-0.3,3.8-1.2,5.6c-1.1,2.2-2.5,3.8-4.7,5.1c-0.1-1.6,0.1-2.8,1.4-3.9
		c3.4-2.7,3.1-7.4,0.1-9.6C39,11.7,38.6,11,38,10.2z"/>
</g>
</svg>
