<?xml version="1.0" encoding="utf-8"?>
<!-- Generator: Adobe Illustrator 27.8.0, SVG Export Plug-In . SVG Version: 6.00 Build 0)  -->
<svg version="1.1" id="Ebene_1" xmlns="http://www.w3.org/2000/svg" xmlns:xlink="http://www.w3.org/1999/xlink" x="0px" y="0px"
	 viewBox="0 0 300 300" style="enable-background:new 0 0 300 300;" xml:space="preserve">

<style type="text/css">
	#Box{
		animation: spin 1s infinite;
		transform-origin: 50% 47.5%;
		animation-timing-function: ease-in-out;
		animation-direction: alternate-reverse;
	}
	
	@keyframes spin {
	from {transform:scale(0);}
	to {transform:scale(2);}
}
</style>

<g>
	<path d="M150.4,260.3c-36.7,0-73.8-7-73.8-20.4c0-13.4,37.1-20.4,73.8-20.4c36.7,0,73.8,7,73.8,20.4
		C224.2,253.3,187,260.3,150.4,260.3z M150.4,223.5c-41.6,0-68.1,8.6-68.1,16.4c0,7.8,26.5,14.7,68.1,14.7
		c41.6,0,68.1-7.2,68.1-14.7C218.5,232.5,192,223.5,150.4,223.5z"/>
</g>

<g>
	<ellipse transform="matrix(0.7071 -0.7071 0.7071 0.7071 -6.0137 103.0274)" cx="121.4" cy="58.8" rx="18.6" ry="18.6"/>
	<path d="M213.7,92.8c-2.6-0.8-5.4,0.7-6.2,3.3l-5.9,19.6l-46.2-43.8l12.2-15l17.7,16c2,1.9,5.2,1.7,7.1-0.4c1.9-2,1.7-5.2-0.4-7.1
		L170.3,46c0,0-0.1-0.1-0.1-0.1c0,0-0.1-0.1-0.1-0.1c-0.1-0.1-0.2-0.1-0.3-0.2c-0.1-0.1-0.3-0.2-0.5-0.3c-0.1-0.1-0.3-0.1-0.4-0.2
		c-0.2-0.1-0.3-0.1-0.5-0.2c-0.1,0-0.3-0.1-0.4-0.1c-0.2,0-0.3-0.1-0.5-0.1c-0.2,0-0.3,0-0.5,0c-0.2,0-0.3,0-0.5,0
		c-0.1,0-0.3,0-0.4,0.1c-0.2,0-0.3,0.1-0.5,0.1c-0.1,0-0.3,0.1-0.4,0.1c-0.2,0.1-0.3,0.1-0.5,0.2c-0.1,0.1-0.3,0.1-0.4,0.2
		c-0.1,0.1-0.3,0.2-0.4,0.3c-0.1,0.1-0.3,0.2-0.4,0.3c-0.1,0.1-0.1,0.1-0.2,0.2L126.2,84c-0.6,0.6-1.1,1.4-1.3,2.3l-4.7,19.3
		l-18.2,18.5c-1.9,2-1.9,5.1,0.1,7.1c1,1,2.2,1.4,3.5,1.4c1.3,0,2.6-0.5,3.6-1.5l19.2-19.5c0.1-0.1,0.2-0.2,0.3-0.3
		c0.1-0.1,0.1-0.1,0.2-0.2c0.1-0.2,0.3-0.4,0.4-0.6c0-0.1,0.1-0.1,0.1-0.2c0.1-0.2,0.2-0.3,0.2-0.5c0,0,0-0.1,0-0.1l5.8-16.8
		l25.8,24.2l-5.9,27.1c0,0,0,0,0,0c-0.1,0.3-0.1,0.6-0.1,0.9c0,0.1,0,0.2,0,0.2c0,0.2,0,0.4,0.1,0.7c0,0.1,0,0.2,0,0.3
		c0.1,0.2,0.1,0.5,0.2,0.7c0,0,0,0.1,0,0.1c0.1,0.3,0.2,0.5,0.4,0.8c0,0.1,0.1,0.1,0.1,0.2c0.1,0.2,0.3,0.3,0.4,0.5
		c0.1,0.1,0.1,0.1,0.2,0.2c0,0,0.1,0.1,0.1,0.1l28.5,26.4c1,0.9,2.2,1.3,3.4,1.3c1.3,0,2.7-0.5,3.7-1.6c1.9-2,1.8-5.2-0.3-7.1
		L165.8,144l11.4-32.6l23.8,17.5c0.1,0,0.1,0.1,0.2,0.1c0.1,0.1,0.2,0.1,0.3,0.2c0.2,0.1,0.3,0.2,0.5,0.3c0.1,0,0.2,0.1,0.3,0.1
		c0.2,0.1,0.4,0.1,0.6,0.2c0.1,0,0.2,0,0.3,0.1c0.3,0.1,0.6,0.1,0.9,0.1c0,0,0,0,0,0c0,0,0,0,0,0c0,0,0,0,0,0c0.2,0,0.4,0,0.6,0
		c0.1,0,0.1,0,0.2,0c0.1,0,0.3,0,0.4-0.1c0,0,0,0,0.1,0c0.1,0,0.1,0,0.2-0.1c0.1,0,0.2-0.1,0.4-0.1c0.1,0,0.1-0.1,0.2-0.1
		c0.1-0.1,0.2-0.1,0.3-0.2c0.1,0,0.1-0.1,0.2-0.1c0.1-0.1,0.2-0.1,0.3-0.2c0.1,0,0.1-0.1,0.2-0.1c0.1-0.1,0.2-0.2,0.3-0.2
		c0.1-0.1,0.1-0.1,0.2-0.2c0.1-0.1,0.2-0.2,0.2-0.3c0.1-0.1,0.1-0.1,0.2-0.2c0,0,0-0.1,0.1-0.1c0,0,0-0.1,0.1-0.1
		c0.2-0.2,0.3-0.5,0.4-0.7c0,0,0-0.1,0-0.1c0.1-0.2,0.2-0.4,0.2-0.6l8.3-27.3C217.9,96.4,216.4,93.6,213.7,92.8z"/>
</g>
<g>
</g>
<g>
</g>
<g>
</g>
<g>
</g>
<g>
</g>
<g>
</g>
<g>
</g>
<g>
</g>
<g>
</g>
<g>
</g>
<g>
</g>
<g>
</g>
<g>
</g>
<g>
</g>
<g>
</g>
</svg>
