<svg width="30" height="30" viewBox="0 0 30 30" fill="none" xmlns="http://www.w3.org/2000/svg">
<g clip-path="url(#clip0_4_450)">
<path d="M15.0037 23.2205L15.0036 24.2761L15.0036 23.2205H15.0034H15.0023L14.9978 23.2205L14.9796 23.2205L14.9072 23.2204C14.8435 23.2202 14.7493 23.2199 14.6286 23.2194C14.387 23.2183 14.039 23.216 13.6145 23.2115C12.765 23.2024 11.611 23.1843 10.3907 23.1482C9.16871 23.112 7.88875 23.0579 6.78484 22.9775C5.65106 22.895 4.79219 22.7901 4.35893 22.674L4.35698 22.6735C3.93883 22.5622 3.55958 22.3457 3.25623 22.0475C2.95521 21.7516 2.73934 21.3856 2.62774 20.9862C1.75784 17.5664 1.98197 11.9981 2.62019 8.27116C2.73452 7.88596 2.94633 7.53312 3.23818 7.2462C3.54153 6.94798 3.92078 6.73148 4.33895 6.62023L4.33895 6.62023L4.34089 6.61971C4.775 6.50333 5.63463 6.39747 6.76836 6.31329C7.87246 6.2313 9.15258 6.17506 10.3746 6.13667C11.595 6.09833 12.7491 6.07803 13.5987 6.06733C14.0232 6.06198 14.3712 6.05904 14.6128 6.05743C14.7336 6.05662 14.8277 6.05615 14.8915 6.05589L14.9639 6.05562L14.9821 6.05557L14.9866 6.05556L14.9871 6.05556L14.9916 6.05556L15.0098 6.05557L15.0822 6.0557C15.146 6.05584 15.2401 6.05612 15.3609 6.05668C15.6024 6.05781 15.9504 6.06007 16.3749 6.0646C17.2244 6.07365 18.3784 6.09176 19.5986 6.12791C20.8206 6.16411 22.1005 6.21817 23.2044 6.29852C24.3382 6.38105 25.197 6.48592 25.6303 6.60208L25.6322 6.6026C26.0504 6.71384 26.4296 6.93033 26.733 7.22854C27.0337 7.52419 27.2495 7.88982 27.3612 8.28875C28.2278 11.732 28.0406 17.3024 27.3701 21.0185C27.2561 21.4053 27.0438 21.7596 26.7509 22.0475C26.4475 22.3457 26.0683 22.5622 25.6501 22.6735L25.6481 22.674C25.2149 22.7901 24.356 22.895 23.2223 22.9775C22.1184 23.0579 20.8385 23.112 19.6165 23.1482C18.3962 23.1843 17.2422 23.2024 16.3927 23.2115C15.9682 23.216 15.6203 23.2183 15.3787 23.2194C15.2579 23.2199 15.1638 23.2202 15.1001 23.2204L15.0277 23.2205L15.0094 23.2205L15.005 23.2205H15.0039H15.0037Z" stroke="black" stroke-width="2.11111"/>
<path d="M17.4542 14.8673L13.3885 17.1822C13.2126 17.2824 12.9941 17.1553 12.9941 16.9529V12.3231C12.9941 12.1207 13.2126 11.9936 13.3885 12.0938L17.4542 14.4087C17.632 14.5099 17.632 14.7661 17.4542 14.8673Z" stroke="black" stroke-width="1.58333"/>
</g>
<defs>
<clipPath id="clip0_4_450">
<rect width="28" height="19.3529" fill="white" transform="translate(1 5)"/>
</clipPath>
</defs>
</svg>
